<svg xmlns="http://www.w3.org/2000/svg" viewBox="0 0 709.28 473.53"><g id="freepik--background-simple--inject-17"><g><path d="M703.88,173.68S687.87,92,573.35,41.55,405.81,41.3,348.24,62.24s-88.8-7.88-184.9-21.49S-16,162.47,11.19,268.18,98.47,411.52,229.81,435.54s209-55.25,301.9-40.84S735.12,328.24,703.88,173.68Z" style="fill:#A35CE6"></path><path d="M703.88,173.68S687.87,92,573.35,41.55,405.81,41.3,348.24,62.24s-88.8-7.88-184.9-21.49S-16,162.47,11.19,268.18,98.47,411.52,229.81,435.54s209-55.25,301.9-40.84S735.12,328.24,703.88,173.68Z" style="fill:#fff;opacity: 0.7000000000000001"></path></g></g><g id="freepik--gears-3--inject-17"><g><path d="M646.91,269a32.38,32.38,0,0,1-3.79,11.57l6.25,6.59-7.4,8.63-7.47-5.17a32.4,32.4,0,0,1-10.86,5.51l-.24,9.07-11.33.87-1.63-8.93a32.33,32.33,0,0,1-11.56-3.79l-6.6,6.25-8.63-7.4,5.18-7.47a32.26,32.26,0,0,1-5.51-10.85l-9.08-.25-.87-11.33,8.93-1.62a32.33,32.33,0,0,1,3.8-11.57l-6.25-6.59,7.4-8.63,7.47,5.17a32.35,32.35,0,0,1,10.85-5.51l.24-9.07,11.34-.87,1.62,8.93a32.45,32.45,0,0,1,11.57,3.79l6.59-6.25,8.63,7.4L640.39,245a32.45,32.45,0,0,1,5.51,10.85l9.07.25.87,11.33Zm-32.3-20.88a16.72,16.72,0,1,0,16.72,16.72A16.72,16.72,0,0,0,614.61,248.12Z" style="fill: none;stroke: #263238;stroke-linejoin: round"></path><path d="M684.52,201a32.45,32.45,0,0,1-3.79,11.57L687,219.2l-7.4,8.63-7.47-5.17a32.4,32.4,0,0,1-10.86,5.51l-.24,9.07-11.33.87-1.63-8.93a32.33,32.33,0,0,1-11.56-3.79l-6.6,6.25-8.63-7.4,5.18-7.47a32.22,32.22,0,0,1-5.51-10.86l-9.08-.24L611,194.34l8.93-1.63a32.35,32.35,0,0,1,3.8-11.56l-6.25-6.6,7.4-8.63,7.47,5.18a32.17,32.17,0,0,1,10.85-5.51l.24-9.08,11.34-.87,1.62,8.94A32.25,32.25,0,0,1,668,168.37l6.59-6.25,8.63,7.4L678,177a32.45,32.45,0,0,1,5.51,10.85l9.07.24.87,11.34Zm-32.3-20.88a16.72,16.72,0,1,0,16.72,16.72A16.72,16.72,0,0,0,652.22,180.16Z" style="fill: none;stroke: #263238;stroke-linejoin: round"></path></g></g><g id="freepik--Clouds--inject-17"><path d="M86,265h57.66a21.23,21.23,0,0,0-8.92-11c-6.87-4.12-15.1.68-20.59-2.06,0,0-5.49-13-15.79-17.16s-24.71,1.37-29.51,11.67-11,2.74-18.54,2.05-9.6,5.5-13.72,8.93-5.49-.69-11.67,0S11.19,265,11.19,265H80" style="fill: none;stroke: #263238;stroke-linecap: round;stroke-linejoin: round"></path><path d="M544.91,251.16h17.37a12.76,12.76,0,0,0-5.37-6.6c-4.13-2.48-9.08.41-12.39-1.24,0,0-3.3-7.85-9.49-10.32s-14.87.82-17.76,7-6.61,1.66-11.15,1.24-5.78,3.31-8.26,5.37-3.3-.41-7,0-8.26,4.54-8.26,4.54h58" style="fill: none;stroke: #263238;stroke-linecap: round;stroke-linejoin: round"></path><path d="M516,19.5h17.36A12.82,12.82,0,0,0,528,12.89c-4.13-2.48-9.09.41-12.39-1.24,0,0-3.31-7.85-9.5-10.32s-14.86.82-17.75,7S481.71,10,477.17,9.59s-5.78,3.3-8.26,5.36-3.3-.41-7,0-8.26,4.55-8.26,4.55h58" style="fill: none;stroke: #263238;stroke-linecap: round;stroke-linejoin: round"></path><path d="M339.43,296.18a14.1,14.1,0,0,0-4.68-3.21c-6.19-2.48-14.86.82-17.75,7s-6.61,1.65-11.15,1.23-5.78,3.31-8.26,5.37-3.3-.41-7,0-8.26,4.54-8.26,4.54H362a12.81,12.81,0,0,0-5.36-6.6c-4.13-2.48-9.09.41-12.39-1.24a25.34,25.34,0,0,0-2.88-4.85" style="fill: none;stroke: #263238;stroke-linecap: round;stroke-linejoin: round"></path></g><g id="freepik--Arrow--inject-17"><path d="M564.1,32.73,584,63.88,403.1,175.63,224.82,232.86a22.22,22.22,0,0,0-4.12,1.81L.5,357.69l4.26,48.48L240.52,274.36,419.22,217a22.49,22.49,0,0,0,4.88-2.25l183.66-113.5,20.1,31.56,54.8-105.26Z" style="fill:#263238;stroke: #263238;stroke-linejoin: round"></path></g><g id="freepik--gear-2--inject-17"><g><g><path d="M443.55,205.72l9.07-.25.87-11.33-8.93-1.62A32.45,32.45,0,0,0,440.77,181l6.25-6.59.2-2.58L446,173.14l-6.36-7.41-7.47,5.17a32.45,32.45,0,0,0-10.85-5.51l-.25-9.07-11.33-.87-1.62,8.93a32.32,32.32,0,0,0-11.57,3.79l-6.59-6.25-7.39,6.34-1.05-1.52-.19,2.58,5.17,7.47A32.4,32.4,0,0,0,381,187.65l-9.08.24L371,199.22l8.93,1.63a32.14,32.14,0,0,0,3.79,11.56l-5,5.26-1.06-1.24-.2,2.58,7.4,8.63,7.47-5.18A32.26,32.26,0,0,0,403.22,228l.25,9.08,11.33.86,1.62-8.93A32.19,32.19,0,0,0,428,225.19l6.59,6.25,8.63-7.4.2-2.58-1.24,1.07-4.13-6A32.45,32.45,0,0,0,443.55,205.72Z" style="fill:#263238;stroke: #263238;stroke-linejoin: round"></path><path d="M452.82,202.9l.87-11.34-8.93-1.62A32.45,32.45,0,0,0,441,178.37l6.25-6.59-7.4-8.63-7.47,5.17a32.4,32.4,0,0,0-10.86-5.51l-.24-9.07-11.34-.87-1.62,8.93a32.33,32.33,0,0,0-11.56,3.79l-6.6-6.25-8.63,7.4,5.18,7.47a32.22,32.22,0,0,0-5.51,10.86l-9.08.24-.87,11.33,8.93,1.63a32.35,32.35,0,0,0,3.8,11.56l-6.25,6.6,7.4,8.63,7.47-5.18a32.17,32.17,0,0,0,10.85,5.51l.24,9.08,11.34.87,1.62-8.94a32.25,32.25,0,0,0,11.57-3.79l6.59,6.25,8.63-7.4L438.24,214a32.45,32.45,0,0,0,5.51-10.85Z" style="fill:#A35CE6;stroke: #263238;stroke-linejoin: round"></path></g><g><polygon points="402.12 193.04 401.94 195.37 404.63 205.6 414.83 208.38 422.35 200.94 422.53 198.62 402.12 193.04" style="fill:#263238;stroke: #263238;stroke-linejoin: round"></polygon><polygon points="409.64 185.6 402.12 193.04 404.81 203.27 415.01 206.06 422.53 198.62 419.84 188.39 409.64 185.6" style="fill:#fff;stroke: #263238;stroke-linejoin: round"></polygon></g></g></g><g id="freepik--gear-1--inject-17"><g><g><path d="M268.1,258.85l9-.94V246.54l-9-.93a32.14,32.14,0,0,0-4.67-11.24l5.73-7.06v-2.58L268,226.18l-6.91-6.91L254.07,225a32.31,32.31,0,0,0-11.24-4.66l-.94-9H230.53l-.94,9A32.31,32.31,0,0,0,218.35,225l-7-5.73-6.88,6.88-1.16-1.42v2.58l5.72,7.06a32.31,32.31,0,0,0-4.66,11.24l-9,.93v11.37l9,.94A32.39,32.39,0,0,0,209,270.09l-4.56,5.62-1.16-1.16v2.59l8,8,7-5.73a32.14,32.14,0,0,0,11.24,4.67l.94,9h11.36l.94-9a32.14,32.14,0,0,0,11.24-4.67l7.05,5.73,8-8v-2.59L268,275.71l-4.57-5.62A32.21,32.21,0,0,0,268.1,258.85Z" style="fill:#263238;stroke: #263238;stroke-linejoin: round"></path><path d="M277.13,255.32V244l-9-.94a32.14,32.14,0,0,0-4.67-11.24l5.73-7.05-8-8-7.05,5.73a32.14,32.14,0,0,0-11.24-4.67l-.94-9H230.53l-.94,9a32.14,32.14,0,0,0-11.24,4.67l-7-5.73-8,8,5.72,7.05A32.31,32.31,0,0,0,204.32,243l-9,.94v11.36l9,.94A32.31,32.31,0,0,0,209,267.5l-5.72,7.05,8,8,7-5.72a32.31,32.31,0,0,0,11.24,4.66l.94,9h11.36l.94-9a32.31,32.31,0,0,0,11.24-4.66l7.05,5.72,8-8-5.73-7.05a32.14,32.14,0,0,0,4.67-11.24Z" style="fill:#A35CE6;stroke: #263238;stroke-linejoin: round"></path></g><g><polygon points="225.82 249.38 225.82 251.71 229.28 261.7 239.67 263.7 246.6 255.71 246.6 253.38 225.82 249.38" style="fill:#263238;stroke: #263238;stroke-linejoin: round"></polygon><polygon points="232.75 241.38 225.82 249.38 229.28 259.37 239.67 261.37 246.6 253.38 243.13 243.38 232.75 241.38" style="fill:#fff;stroke: #263238;stroke-linejoin: round"></polygon></g></g></g><g id="freepik--Calendar--inject-17"><g><rect x="309.54" y="10.4" width="109.32" height="88.2" style="fill: none;stroke: #263238;stroke-linecap: round;stroke-linejoin: round"></rect><g><rect x="316.17" y="32.82" width="13.99" height="13.99" style="fill: none;stroke: #263238;stroke-linecap: round;stroke-linejoin: round"></rect><rect x="336.68" y="32.82" width="13.99" height="13.99" style="fill: none;stroke: #263238;stroke-linecap: round;stroke-linejoin: round"></rect><rect x="357.2" y="32.82" width="13.99" height="13.99" style="fill: none;stroke: #263238;stroke-linecap: round;stroke-linejoin: round"></rect><rect x="377.72" y="32.82" width="13.99" height="13.99" style="fill: none;stroke: #263238;stroke-linecap: round;stroke-linejoin: round"></rect><rect x="398.23" y="32.82" width="13.99" height="13.99" style="fill: none;stroke: #263238;stroke-linecap: round;stroke-linejoin: round"></rect></g><g><rect x="316.17" y="54.27" width="13.99" height="13.99" style="fill: none;stroke: #263238;stroke-linecap: round;stroke-linejoin: round"></rect><rect x="336.68" y="54.27" width="13.99" height="13.99" style="fill: none;stroke: #263238;stroke-linecap: round;stroke-linejoin: round"></rect><rect x="357.2" y="54.27" width="13.99" height="13.99" style="fill: none;stroke: #263238;stroke-linecap: round;stroke-linejoin: round"></rect><rect x="377.72" y="54.27" width="13.99" height="13.99" style="fill: none;stroke: #263238;stroke-linecap: round;stroke-linejoin: round"></rect><rect x="398.23" y="54.27" width="13.99" height="13.99" style="fill: none;stroke: #263238;stroke-linecap: round;stroke-linejoin: round"></rect></g><g><rect x="316.17" y="75.72" width="13.99" height="13.99" style="fill: none;stroke: #263238;stroke-linecap: round;stroke-linejoin: round"></rect><rect x="336.68" y="75.72" width="13.99" height="13.99" style="fill: none;stroke: #263238;stroke-linecap: round;stroke-linejoin: round"></rect><rect x="357.2" y="75.72" width="13.99" height="13.99" style="fill: none;stroke: #263238;stroke-linecap: round;stroke-linejoin: round"></rect><rect x="377.72" y="75.72" width="13.99" height="13.99" style="fill: none;stroke: #263238;stroke-linecap: round;stroke-linejoin: round"></rect><rect x="398.23" y="75.72" width="13.99" height="13.99" style="fill: none;stroke: #263238;stroke-linecap: round;stroke-linejoin: round"></rect></g><rect x="316.87" y="17.43" width="94.66" height="7.46" style="fill: none;stroke: #263238;stroke-linecap: round;stroke-linejoin: round"></rect></g></g><g id="freepik--chart-3--inject-17"><g><path d="M604.85,408.05a21.72,21.72,0,0,1-27.57,1.56l-19.14,26.07a54,54,0,0,0,68.66-3.88Zm-36.43-15.93A21.63,21.63,0,0,1,576.79,375l-19.88-25.52a54,54,0,0,0-7.86,77.76l24.59-21A21.55,21.55,0,0,1,568.42,392.12Zm21.7-54.05a54.71,54.71,0,0,0-13.51,1.7l8.08,31.34a21.69,21.69,0,0,1,27.12,21,20.2,20.2,0,0,1-.21,3l32,4.53a54.06,54.06,0,0,0-53.52-61.61Z" style="fill: none;stroke: #263238;stroke-linejoin: round"></path><polygon points="590.12 392.12 576.79 375 556.91 349.48 550.58 341.37 574.3 330.83 576.6 339.77 576.61 339.77 584.69 371.11 590.12 392.12" style="fill: none;stroke: #263238;stroke-linejoin: round"></polygon><polygon points="590.12 392.12 577.28 409.61 558.14 435.68 551.89 444.18 540.03 434.96 549.05 427.24 573.63 406.22 590.12 392.12" style="fill: none;stroke: #263238;stroke-linejoin: round"></polygon><polygon points="655.37 401.34 638.24 444.18 626.8 431.8 604.85 408.05 590.12 392.12 611.6 395.15 643.64 399.68 655.37 401.34" style="fill: none;stroke: #263238;stroke-linejoin: round"></polygon></g></g><g id="freepik--chart-2--inject-17"><g><rect x="111.67" y="366.18" width="14.61" height="79.66" style="fill: none;stroke: #263238;stroke-linecap: round;stroke-linejoin: round"></rect><rect x="133.03" y="396.41" width="14.61" height="49.43" style="fill: none;stroke: #263238;stroke-linecap: round;stroke-linejoin: round"></rect><rect x="154.38" y="401.75" width="14.61" height="44.1" style="fill: none;stroke: #263238;stroke-linecap: round;stroke-linejoin: round"></rect><rect x="175.74" y="389.3" width="14.61" height="56.55" style="fill: none;stroke: #263238;stroke-linecap: round;stroke-linejoin: round"></rect><rect x="197.1" y="387.52" width="14.61" height="58.32" style="fill: none;stroke: #263238;stroke-linecap: round;stroke-linejoin: round"></rect><rect x="218.46" y="347.81" width="14.61" height="98.04" style="fill: none;stroke: #263238;stroke-linecap: round;stroke-linejoin: round"></rect><rect x="239.82" y="392.26" width="14.61" height="53.58" style="fill: none;stroke: #263238;stroke-linecap: round;stroke-linejoin: round"></rect><rect x="261.18" y="376.85" width="14.61" height="68.99" style="fill: none;stroke: #263238;stroke-linecap: round;stroke-linejoin: round"></rect><rect x="282.54" y="412.42" width="14.61" height="33.43" style="fill: none;stroke: #263238;stroke-linecap: round;stroke-linejoin: round"></rect><rect x="303.75" y="391.02" width="14.61" height="54.82" style="fill: none;stroke: #263238;stroke-linecap: round;stroke-linejoin: round"></rect><rect x="325.11" y="392.26" width="14.61" height="53.58" style="fill: none;stroke: #263238;stroke-linecap: round;stroke-linejoin: round"></rect><rect x="346.46" y="367.85" width="14.61" height="77.99" style="fill: none;stroke: #263238;stroke-linecap: round;stroke-linejoin: round"></rect><rect x="367.82" y="412.42" width="14.61" height="33.43" style="fill: none;stroke: #263238;stroke-linecap: round;stroke-linejoin: round"></rect></g></g><g id="freepik--chart-1--inject-17"><g><g><line x1="161.05" y1="69.21" x2="181.74" y2="69.21" style="fill: none;stroke: #263238;stroke-linejoin: round"></line><line x1="161.05" y1="73.81" x2="181.74" y2="73.81" style="fill: none;stroke: #263238;stroke-linejoin: round"></line><line x1="161.05" y1="78.41" x2="181.74" y2="78.41" style="fill: none;stroke: #263238;stroke-linejoin: round"></line></g><polyline points="42.88 44.02 42.88 37.98 171.43 37.98" style="fill: none;stroke: #263238;stroke-linejoin: round"></polyline><line x1="42.88" y1="72.1" x2="42.88" y2="62.1" style="fill: none;stroke: #263238;stroke-linejoin: round"></line><line x1="42.88" y1="99.61" x2="42.88" y2="89.61" style="fill: none;stroke: #263238;stroke-linejoin: round"></line><line x1="171.5" y1="31.42" x2="171.5" y2="43.78" style="fill: none;stroke: #263238;stroke-linejoin: round"></line><line x1="128.05" y1="38.4" x2="128.05" y2="44.13" style="fill: none;stroke: #263238;stroke-linejoin: round"></line><line x1="109.83" y1="26.41" x2="109.83" y2="37.52" style="fill: none;stroke: #263238;stroke-linejoin: round"></line><line x1="85.84" y1="38.4" x2="85.84" y2="44.13" style="fill: none;stroke: #263238;stroke-linejoin: round"></line><rect x="89.46" y="3.96" width="42.24" height="21.7" style="fill: none;stroke: #263238;stroke-linejoin: round"></rect><rect x="25.19" y="43.85" width="35.39" height="18.18" style="fill: none;stroke: #263238;stroke-linejoin: round"></rect><rect x="25.19" y="72.01" width="35.39" height="18.18" style="fill: none;stroke: #263238;stroke-linejoin: round"></rect><rect x="25.19" y="100.16" width="35.39" height="18.18" style="fill: none;stroke: #263238;stroke-linejoin: round"></rect><rect x="68.06" y="43.85" width="35.39" height="18.18" style="fill: none;stroke: #263238;stroke-linejoin: round"></rect><rect x="110.94" y="43.85" width="35.39" height="18.18" style="fill: none;stroke: #263238;stroke-linejoin: round"></rect><rect x="153.81" y="43.85" width="35.39" height="18.18" style="fill: none;stroke: #263238;stroke-linejoin: round"></rect><rect x="153.81" y="13.35" width="35.39" height="18.18" style="fill: none;stroke: #263238;stroke-linejoin: round"></rect></g></g><g id="freepik--Character--inject-17"><g><g><polygon points="219.57 62.28 251.87 80.35 247.82 85.58 218.69 79.3 219.57 62.28" style="fill:#A35CE6;stroke: #263238;stroke-linejoin: round"></polygon><polygon points="257.98 87.08 257.7 86.66 262.36 87.17 270.35 89.29 261.89 80.38 251.87 80.35 247.82 85.58 254.41 90.38 262.65 92.3 262.38 89.83 257.98 87.08" style="fill:#fff;stroke: #263238;stroke-linecap: round;stroke-linejoin: round"></polygon></g><line x1="225.72" y1="84.06" x2="225.73" y2="85.89" style="fill: none;stroke: #263238;stroke-linecap: round;stroke-linejoin: round"></line><g><polygon points="172.24 128.73 169.16 180.16 124.19 205.86 127.3 215.95 194.39 192.2 207.98 146.35 172.24 128.73" style="fill:#263238;stroke: #263238;stroke-linecap: round;stroke-linejoin: round"></polygon><path d="M175.72,113.37s-5.49,15.25-3.84,17.45c10.48,14,59.07,35.07,59.07,35.07l38,40.66,9.71-8.54-27.17-44.15L222,127.33l1.51-6.86Z" style="fill:#263238;stroke: #263238;stroke-linecap: round;stroke-linejoin: round"></path><path d="M224.84,57.36l4.51,10a30.42,30.42,0,0,1,2.7,13.12l-.2,9.82-7.19,22.25,1-37.95Z" style="fill:#A35CE6;stroke: #263238;stroke-linejoin: round"></path><polygon points="205.82 43.18 187.22 62.84 175.72 113.37 223.47 120.47 228.75 79.83 224.98 61.47 224.84 57.36 228.18 59.32 223.93 53.11 220.6 48.05 205.82 43.18" style="fill:#fff;stroke: #263238;stroke-linecap: round;stroke-linejoin: round"></polygon><g><polygon points="176.42 115.47 223.22 122.32 223.47 120.47 177.56 113.42 176.42 115.47" style="fill:#949494;stroke: #263238;stroke-linecap: round;stroke-linejoin: round"></polygon><polyline points="192.01 118.02 192.36 115.81 194.23 116.16 193.88 118.72" style="fill:#263238;stroke: #263238;stroke-linecap: round;stroke-linejoin: round"></polyline><polyline points="218.84 122.45 219.19 120.24 221.05 120.59 220.7 123.16" style="fill:#263238;stroke: #263238;stroke-linecap: round;stroke-linejoin: round"></polyline><path d="M213.34,119.91c-.06.77-1.18,1.31-2.5,1.2s-2.33-.83-2.26-1.6,1.18-1.3,2.5-1.19S213.41,119.14,213.34,119.91Z" style="fill:#fff;stroke: #263238;stroke-linecap: round;stroke-linejoin: round"></path></g><path d="M228.75,79.83l3.1,10.43s1.14,13.42.19,15.95-8.57,14.26-8.57,14.26Z" style="fill:#263238;stroke: #263238;stroke-linecap: round;stroke-linejoin: round"></path><g><g><path d="M232.28,21.9a59,59,0,0,0-3.75-9.25c-2.13-3.93-11.2-5.85-16.19-2.45s-5.49,11.29-4.55,13.8,1.66,13.33,1.66,13.33l-1,7.4,12.94,9.39,1.78-12.06s6.79.26,7.8-1.6,1-9.11,1-9.11,2.5-.94,2.62-2.24S232.28,21.9,232.28,21.9Z" style="fill:#fff;stroke: #263238;stroke-linecap: round;stroke-linejoin: round"></path><path d="M211.14,25.16s2.32,3.07,4.53.68,4-4.86,4.59-7.22-4.89-5.7-.59-6.36,6.31,3.5,8.86.39,1.07-3.88-8.37-6.08S204.9,8,205.5,14.35a81.74,81.74,0,0,0,3,14Z" style="fill:#263238;stroke: #263238;stroke-linecap: round;stroke-linejoin: round"></path><path d="M231.85,26.18a4.64,4.64,0,1,1-3.46-5.57A4.64,4.64,0,0,1,231.85,26.18Z" style="fill: none;stroke: #263238;stroke-linecap: round;stroke-linejoin: round"></path><path d="M232.13,22a4.23,4.23,0,0,1,1.73,0,4.36,4.36,0,0,1,.2,8.43" style="fill: none;stroke: #263238;stroke-linecap: round;stroke-linejoin: round"></path><line x1="222.82" y1="24.07" x2="211.14" y2="25.16" style="fill:#fff;stroke: #263238;stroke-linecap: round;stroke-linejoin: round"></line><path d="M213.66,28.22s-1.11-5-3.49-4.62-2.94,7.7-.94,8.92,4.41-.11,4.41-.11.92,4.21,2.84,5.8" style="fill:#fff;stroke: #263238;stroke-linecap: round;stroke-linejoin: round"></path></g><path d="M229.31,24.51c-.17.69-.51,1.21-.77,1.14s-.34-.67-.18-1.36.51-1.21.77-1.15S229.47,23.81,229.31,24.51Z" style="fill:#263238"></path><path d="M226.17,19.47a4.07,4.07,0,0,1,3.13-.15" style="fill: none;stroke: #263238;stroke-linecap: round;stroke-linejoin: round"></path><path d="M231.58,33.21a2.81,2.81,0,0,1-2.91-.79" style="fill: none;stroke: #263238;stroke-linecap: round;stroke-linejoin: round"></path></g><polygon points="206.93 39.42 224.09 53.95 218.74 60.91 204 42.95 206.93 39.42" style="fill:#fff;stroke: #263238;stroke-linecap: round;stroke-linejoin: round"></polygon></g><g><path d="M205.16,43.51S215.23,55.35,219.1,65.4c2.59,6.75-2.44,20.73-2.95,22.24-2.94,8.84-42.67,46.91-45.29,48.88s-22.26-16.64-22.26-16.64l28.62-28,6.21-23.23L190.31,51S201.05,43.54,205.16,43.51Z" style="fill:#A35CE6;stroke: #263238;stroke-linejoin: round"></path><polygon points="193.82 114.03 168.24 126.05 170.86 136.52 193.82 114.03" style="fill:#A35CE6;stroke: #263238;stroke-linejoin: round"></polygon><polyline points="210.26 59.18 211.24 61.8 216.48 63.76 211.9 65.72 216.48 78.81 216.15 87.64" style="fill: none;stroke: #263238;stroke-linecap: round;stroke-linejoin: round"></polyline></g><g><path d="M208.45,52.86s-6.92-8.47-8-8.08S158.5,57.92,157.78,58.32s-25.94,37.93-25.94,37.93l7.1,4.15,21.81-21.46L197.86,66" style="fill:#A35CE6;stroke: #263238;stroke-linejoin: round"></path><polyline points="162.13 74.47 160.75 78.94 160.19 70.03" style="fill: none;stroke: #263238;stroke-linecap: round;stroke-linejoin: round"></polyline></g><path d="M220.47,59.75l1.81,2.76S214,77.32,207,78.73s-25.57-1.32-25.57-1.32l-25,3.77-8.32,5.3,9.57,5.87,25.53-9.52,24.1,1.9,17.14-21,.72-6.73-1.65-1.64Z" style="fill:#263238;stroke: #263238;stroke-linecap: round;stroke-linejoin: round"></path><g><path d="M122.31,113.71l-.12,0a1.43,1.43,0,0,1-.8-1.85c1.16-2.9,4.87-7.9,10.65-5.94,5.55,1.86,5.41,7.76,4.56,10.61a1.43,1.43,0,1,1-2.73-.82c.06-.22,1.59-5.64-2.74-7.09-4.73-1.55-7,4-7.09,4.29A1.43,1.43,0,0,1,122.31,113.71Z" style="fill:#263238"></path><polygon points="142.59 156.31 94.51 141.95 107.1 107.75 150.81 120.8 142.59 156.31" style="fill:#949494;stroke: #263238;stroke-linecap: round;stroke-linejoin: round"></polygon><path d="M107.8,110.83l13.6,17.79a5.22,5.22,0,0,0,6,1.72l21.22-8" style="fill: none;stroke: #263238;stroke-linecap: round;stroke-linejoin: round"></path></g><path d="M138.94,100.4l.41,5.6-1,5.63s-.4,1.81-1,1.81-1.81-1.41-1.81-1.41v-1.41l-1.21,2.82s-2.41.4-3.41-.21-1-3-1-3l-3.82-4-.2-2.41,6-7.54Z" style="fill:#fff;stroke: #263238;stroke-linecap: round;stroke-linejoin: round"></path><path d="M278.69,198l9-1.71s10.88-3.81,11.15-2.72-12,11.7-12.78,12.79-9.53,3.53-9.53,3.53l1.36,2.18-6,2.72a7.53,7.53,0,0,1-2.45-3,9.69,9.69,0,0,1-.5-5.26Z" style="fill:#949494;stroke: #263238;stroke-linecap: round;stroke-linejoin: round"></path><path d="M124.19,205.86l-3-1.35L116.82,207l-2.45,1.63,2.18,5.71H119l1.91,4.9a20.34,20.34,0,0,0-.27,4.63c.27,1.08,7.07,8.7,8.16,7.61s-1.36-10.33-1.36-11.15-.13-4.34-.13-4.34Z" style="fill:#949494;stroke: #263238;stroke-linecap: round;stroke-linejoin: round"></path></g></g><g id="freepik--Hand--inject-17"><g><path d="M407,268.81l34.38,17.75s22.19,19.3,25.07,22.4,5.32,8.43,6.65,12.87,6.44,41.26,6.44,41.26l15.3,65.66-55.68,14.19s-16.41-50.35-17.08-51.68S401,376,393.5,364.42s-8.65-15.75-8.65-15.75l8.43-30.61,4.66-12.87,1.77-35.93Z" style="fill:#fff;stroke: #263238;stroke-linejoin: round"></path><path d="M420.16,274.87s1.6,9.58,3.51,14.68,8.23,10.86,7.66,16-3.19,18.83,2.24,21.38c0,0,10.21-20.1,8.93-23.3s-19.78-31.91-19.78-31.91Z" style="fill:#263238;stroke: #263238;stroke-linejoin: round"></path><path d="M387.1,351.53l15.83,8.87s5.11-1,11.17,2.55c0,0,8.94,0,13.08-1.91s1.75-15.73,1.75-15.73,6.55-10.76,5.59-14.91-6.7-10.53-6.7-10.53l-9.57-14s2.87-4.15,2.87-7.66-6.06-9.26-6.06-9.26Z" style="fill:#263238;stroke: #263238;stroke-linejoin: round"></path><g><path d="M404.06,219.85s3,5.7,3,9.67-5.17,143.28-5.17,143.28l11.65,1.49,6.4-145.76s1-6.94,5.95-10.41Z" style="fill:#b8b8b8;stroke: #263238;stroke-linecap: round;stroke-linejoin: round"></path><path d="M402.49,192.94l2.34,13.52a15.34,15.34,0,0,0,9.58,1.54,10.86,10.86,0,0,0,7.87-5.65l-2.12-14.19a2.58,2.58,0,0,1,2.57.35c3.34,2.92,9.77,10.59,10.15,17.26.51,8.9-5.74,14.23-15.73,16.08-13.86,2.57-18.82-5.64-20.36-9.06s2.31-16.89,2.91-18.13S402.49,192.94,402.49,192.94Z" style="fill:#949494;stroke: #263238;stroke-linecap: round;stroke-linejoin: round"></path><path d="M407.32,371.76A13,13,0,1,0,420,384.81,12.87,12.87,0,0,0,407.32,371.76Zm8.31,15.8c-.31,1,.72,2.63.14,3.45s-2.48.43-3.29,1-.93,2.55-1.9,2.88-2.22-1.13-3.26-1.13-2.32,1.45-3.26,1.13-1.1-2.27-1.91-2.88-2.7-.2-3.28-1,.45-2.47.14-3.45-2.08-1.71-2.08-2.75,1.79-1.81,2.08-2.75-.72-2.63-.14-3.45,2.48-.44,3.28-1.05.94-2.55,1.91-2.88,2.21,1.14,3.26,1.14,2.32-1.45,3.26-1.14,1.1,2.27,1.9,2.88,2.71.21,3.29,1.05-.45,2.46-.14,3.45,2.08,1.7,2.08,2.75S415.92,386.61,415.63,387.56Z" style="fill:#b8b8b8;stroke: #263238;stroke-linecap: round;stroke-linejoin: round"></path></g><g><path d="M386.45,331.8s-3.43,9-3.43,13.08-.75,4.51,4.08,6.65,26.17,7.3,29.92,7.83,8.47.86,10.4-.64,4.08-5.9,2.58-9.12a8.91,8.91,0,0,0-5-4.29L408,341.88Z" style="fill:#fff;stroke: #263238;stroke-linejoin: round"></path><path d="M424.21,358.4a5.73,5.73,0,0,1-2.68-1,23.1,23.1,0,0,0,1.07-2.89c.43-1.51,1.18-5.9,1.18-5.9s3.86,0,5.25,1.18" style="fill: none;stroke: #263238;stroke-linejoin: round"></path></g><g><path d="M392.78,312.38s-5,1.29-6,4.51-2.68,10.62-1.39,13.51,23.38,11.8,23.38,11.8,17.59,3.43,20.17,3.11,4-5,3.32-8.9-.54-6.76-3.65-7.94-9.54-3.11-10.72-3.43-8.58-3.86-8.58-3.86Z" style="fill:#fff;stroke: #263238;stroke-linejoin: round"></path><path d="M430.75,331.26a3.35,3.35,0,0,0-3-.32,15.81,15.81,0,0,1-.11,6.33,21.41,21.41,0,0,1-1.82,5.68,25.56,25.56,0,0,0,4.07.75" style="fill: none;stroke: #263238;stroke-linejoin: round"></path></g><g><path d="M391.17,288.92s-7.09,2.79-7.35,7.6-.5,9.38,2,11.15,16,11.66,21.53,13.18,18.06,2.94,20.85,1.67,5.07-7.85,2.54-11.91-14.77-9-15.79-9.53-6.08-3.8-6.08-3.8Z" style="fill:#fff;stroke: #263238;stroke-linejoin: round"></path><path d="M430.77,310.61a17.33,17.33,0,0,0-5.17-.37c-3,.21-3.65.86-3.65.86s1.29,4.93.11,7.51-1.61,3.32-1.61,3.32,5.37,1.72,7.78.59" style="fill: none;stroke: #263238;stroke-linejoin: round"></path></g><g><path d="M405.31,267.66s-6.34-2.53-8.62-1-6.08,10.64-6.58,16.21,3.54,8.11,5.82,9.12,10.64,4.56,12.42,5.32,10.13,4.06,11.4-4.3-7.85-13.94-9.63-14.95a13.26,13.26,0,0,1-3.29-3Z" style="fill:#fff;stroke: #263238;stroke-linejoin: round"></path><path d="M419.1,288.2s-8.05-4-9.87-1.93-3,7.62-2.15,8.9,5.37,3.33,7,3.22" style="fill: none;stroke: #263238;stroke-linejoin: round"></path></g><path d="M471.76,318s-8-16.39-13-22.19S437.37,271.65,434,267.46s-4.6-13.6-7.6-16.6-7.2,2.2-8.2,11.6,4.2,18.39,7.2,21.79,9.8,16.59,11.19,21.59-9.59,26.18-4,42.37,17.39,16,17.39,16" style="fill:#fff;stroke: #263238;stroke-linejoin: round"></path><path d="M425.31,250.66s-1,2.41-1.12,2.69a14.86,14.86,0,0,0,2.42,7.44c2,2.69,4.09,1.58,4.37.65" style="fill: none;stroke: #263238;stroke-linejoin: round"></path><polygon points="494.42 391.95 422.77 429.66 427.8 448.52 501.96 417.72 494.42 391.95" style="fill:#fff;stroke: #263238;stroke-linejoin: round"></polygon><polygon points="501.33 408.92 417.11 448.52 422.14 473.03 513.9 473.03 501.33 408.92" style="fill:#263238;stroke: #263238;stroke-linejoin: round"></polygon></g></g></svg>
